# xmcd CD database file
#
# Track frame offsets:
#	150
#	8246
#	16091
#	29029
#	39920
#	55222
#	66749
#	74405
#	85730
#	97611
#	110372
#	124767
#	137184
#	149694
#	163743
#	174084
#	186607
#	197263
#	211441
#	222535
#
# Disc length: 3144 seconds
#
# Revision: 3
# Processed by: cddbd v1.5.2PL0 Copyright (c) Steve Scherf et al.
# Submitted via: CDex 1.77
#
DISCID=270c4614
DTITLE=Various Artist - No Stones Unturned # 2
DYEAR=2018
DGENRE=Blues
TTITLE0=Chuck Berry - I'm Talking About You 
TTITLE1=Eddie Cochran - Twenty Flight Rock
TTITLE2=Muddy Waters - Mannish Boy 
TTITLE3=Howlin' Wolf - The Red Rooster
TTITLE4=Ray Charles - The Right Time
TTITLE5=Little Walter - My Babe
TTITLE6=Chuck Berry - Let It Rock
TTITLE7=Bo Diddley - Who Do You Love?
TTITLE8=Barrett Strong - Money (That's What I Want)
TTITLE9=Howlin' Wolf - I Ain't Superstitious 
TTITLE10=Jimmy Reed - Little Rain
TTITLE11=Little Walter - I Got To Go
TTITLE12=Muddy Waters - I Just Want To Make Love To You -
TTITLE13=Otis Rush - I Can't Quit You Baby 
TTITLE14=Robert Johnson - Stop Breakin' Down Blues
TTITLE15=Chuck Berry - Carol
TTITLE16=Bo Diddley - Mona
TTITLE17=Tampa Red - Don't You Lie To Me 
TTITLE18=Brook Benton - Key To The Highway 
TTITLE19=Nat King Cole - (Get Your Kicks On) Route 66 
EXTD=YEAR: 2018
EXTT0=
EXTT1=
EXTT2=
EXTT3=
EXTT4=
EXTT5=
EXTT6=
EXTT7=
EXTT8=
EXTT9=
EXTT10=
EXTT11=
EXTT12=
EXTT13=
EXTT14=
EXTT15=
EXTT16=
EXTT17=
EXTT18=
EXTT19=
PLAYORDER=
